<svg width="115" height="121" viewBox="0 0 115 121" fill="none" xmlns="http://www.w3.org/2000/svg">
<path d="M13.5014 37.9512L2.81792 35.2773C-1.40788 51.1246 1.0433 69.3224 10.8185 85.1171L19.2807 79.2422C11.3298 66.0621 9.5677 50.9142 13.5014 37.9512ZM86.7251 32.4194L95.1873 26.5445C84.1851 11.6017 68.3636 2.68615 52.3222 0.90923L50.947 11.9549C64.1917 12.9919 77.5048 20.1206 86.7251 32.4194ZM80.0096 40.6098C70.0633 25.8513 54.7978 18.3139 40.4937 23.446L38.2906 20.177C35.6015 16.1869 30.5959 14.9341 27.0841 17.3722C23.5722 19.8102 22.9081 24.9992 25.5972 28.9893L27.8003 32.2583C17.86 43.9577 19.2573 61.0525 29.236 75.8591L45.4353 99.8957L43.4527 115.385L46.6925 120.193L114.391 73.1935L111.151 68.3862L96.2089 64.6464L80.0096 40.6098ZM90.2612 111.115C90.8536 110.704 91.3712 110.274 91.8241 109.748C94.1207 107.165 94.9377 103.493 94.0939 99.8452C93.7394 98.3977 93.1086 97.0009 92.2015 95.6549L75.2769 107.405C78.8831 112.663 85.5646 114.376 90.2612 111.115Z" fill="white"/>
</svg>
