<svg width="51" height="47" viewBox="0 0 51 47" fill="none" xmlns="http://www.w3.org/2000/svg">
<path d="M4.25 5.875H17C19.2543 5.875 21.4163 6.70029 23.0104 8.16933C24.6045 9.63836 25.5 11.6308 25.5 13.7083V41.125C25.5 39.5669 24.8284 38.0725 23.6328 36.9707C22.4373 35.869 20.8158 35.25 19.125 35.25H4.25V5.875Z" stroke="black" stroke-width="2" stroke-linecap="round" stroke-linejoin="round"/>
<path d="M46.75 5.875H34C31.7457 5.875 29.5837 6.70029 27.9896 8.16933C26.3955 9.63836 25.5 11.6308 25.5 13.7083V41.125C25.5 39.5669 26.1716 38.0725 27.3672 36.9707C28.5627 35.869 30.1842 35.25 31.875 35.25H46.75V5.875Z" stroke="black" stroke-width="2" stroke-linecap="round" stroke-linejoin="round"/>
</svg>
