<svg width="56" height="58" viewBox="0 0 56 58" fill="none" xmlns="http://www.w3.org/2000/svg">
<path d="M18.8941 12.0377L19.3277 12.6771L20.0525 12.4142C26.443 10.0962 33.3734 13.2693 37.9597 20.0322L45.6882 31.4288L45.9056 31.7493L46.281 31.8381L53.1289 33.4587L53.896 34.5898L22.4875 56.2481L21.7204 55.117L22.7068 48.0942L22.7609 47.7092L22.5435 47.3886L14.8149 35.9921C10.2127 29.2056 9.79022 21.5799 14.2699 16.402L14.7767 15.8161L14.3427 15.1762L13.2917 13.6262C12.2684 12.1174 12.6203 10.2861 13.81 9.46568C14.9997 8.6453 16.8198 8.97895 17.843 10.4878L18.8941 12.0377ZM43.4191 51.7487L43.4138 51.7546L43.4085 51.7606C43.2579 51.9325 43.075 52.0872 42.8289 52.2569C41.3027 53.3093 39.1264 53.0496 37.6186 51.5887L44.0743 47.1371C44.1863 47.3942 44.2728 47.6528 44.3353 47.9131C44.6582 49.3598 44.3038 50.7708 43.4191 51.7487ZM5.32701 39.6474C1.44882 32.9102 0.469737 25.2996 2.11067 18.5149L5.30751 19.2714C3.71543 25.2467 4.49685 31.9755 7.81963 37.9286L5.32701 39.6474ZM25.9725 5.0229L26.4197 1.75677C33.2654 2.68907 39.9413 6.36922 44.7769 12.444L42.2866 14.1612C37.9876 8.87859 32.0369 5.7163 25.9725 5.0229Z" stroke="black" stroke-width="2"/>
</svg>
