<svg width="43" height="41" viewBox="0 0 43 41" fill="none" xmlns="http://www.w3.org/2000/svg">
<path d="M21.5 25.625C24.4685 25.625 26.875 23.3305 26.875 20.5C26.875 17.6695 24.4685 15.375 21.5 15.375C18.5315 15.375 16.125 17.6695 16.125 20.5C16.125 23.3305 18.5315 25.625 21.5 25.625Z" stroke="black" stroke-width="2" stroke-linecap="round" stroke-linejoin="round"/>
<path d="M34.7582 25.625C34.5197 26.1403 34.4485 26.7118 34.5539 27.266C34.6593 27.8202 34.9364 28.3315 35.3494 28.7342L35.4569 28.8367C35.7901 29.154 36.0544 29.5308 36.2347 29.9456C36.415 30.3604 36.5079 30.805 36.5079 31.254C36.5079 31.703 36.415 32.1476 36.2347 32.5623C36.0544 32.9771 35.7901 33.3539 35.4569 33.6712C35.1241 33.9889 34.7289 34.2409 34.2939 34.4129C33.8589 34.5848 33.3926 34.6733 32.9217 34.6733C32.4508 34.6733 31.9845 34.5848 31.5495 34.4129C31.1145 34.2409 30.7193 33.9889 30.3865 33.6712L30.279 33.5687C29.8567 33.1749 29.3204 32.9107 28.7392 32.8102C28.158 32.7098 27.5586 32.7776 27.0182 33.005C26.4882 33.2216 26.0363 33.5811 25.718 34.0395C25.3996 34.4978 25.2288 35.0349 25.2265 35.5846V35.875C25.2265 36.7812 24.849 37.6502 24.177 38.2909C23.505 38.9317 22.5935 39.2917 21.6432 39.2917C20.6928 39.2917 19.7814 38.9317 19.1094 38.2909C18.4374 37.6502 18.0598 36.7812 18.0598 35.875V35.7212C18.046 35.1558 17.854 34.6074 17.5089 34.1474C17.1638 33.6873 16.6816 33.3369 16.1248 33.1417C15.5844 32.9143 14.985 32.8464 14.4038 32.9469C13.8226 33.0474 13.2863 33.3116 12.864 33.7054L12.7565 33.8079C12.4237 34.1256 12.0285 34.3776 11.5935 34.5495C11.1585 34.7215 10.6922 34.81 10.2213 34.81C9.75039 34.81 9.2841 34.7215 8.84909 34.5495C8.41408 34.3776 8.01888 34.1256 7.68609 33.8079C7.35292 33.4906 7.08862 33.1138 6.90829 32.699C6.72796 32.2842 6.63514 31.8396 6.63514 31.3906C6.63514 30.9416 6.72796 30.497 6.90829 30.0822C7.08862 29.6675 7.35292 29.2906 7.68609 28.9733L7.79359 28.8708C8.20663 28.4682 8.48371 27.9568 8.58909 27.4027C8.69448 26.8485 8.62333 26.2769 8.38484 25.7617C8.15772 25.2564 7.78061 24.8255 7.29992 24.5219C6.81923 24.2184 6.25595 24.0555 5.67942 24.0533H5.37484C4.42448 24.0533 3.51304 23.6934 2.84104 23.0526C2.16903 22.4119 1.7915 21.5428 1.7915 20.6367C1.7915 19.7305 2.16903 18.8615 2.84104 18.2207C3.51304 17.58 4.42448 17.22 5.37484 17.22H5.53609C6.12912 17.2068 6.70426 17.0237 7.18675 16.6947C7.66923 16.3657 8.03674 15.9058 8.2415 15.375C8.48 14.8597 8.55115 14.2882 8.44576 13.734C8.34038 13.1798 8.0633 12.6685 7.65025 12.2658L7.54275 12.1633C7.20959 11.846 6.94528 11.4692 6.76496 11.0544C6.58463 10.6396 6.49181 10.195 6.49181 9.74604C6.49181 9.29704 6.58463 8.85244 6.76496 8.43766C6.94528 8.02289 7.20959 7.64607 7.54275 7.32875C7.87555 7.01108 8.27075 6.75907 8.70576 6.58713C9.14077 6.41519 9.60706 6.32669 10.078 6.32669C10.5489 6.32669 11.0152 6.41519 11.4502 6.58713C11.8852 6.75907 12.2804 7.01108 12.6132 7.32875L12.7207 7.43125C13.1429 7.82508 13.6792 8.08928 14.2604 8.18976C14.8417 8.29024 15.4411 8.2224 15.9815 7.995H16.1248C16.6548 7.77845 17.1067 7.41887 17.425 6.96054C17.7434 6.50222 17.9142 5.96514 17.9165 5.41542V5.125C17.9165 4.21884 18.294 3.3498 18.966 2.70905C19.638 2.0683 20.5495 1.70833 21.4998 1.70833C22.4502 1.70833 23.3616 2.0683 24.0336 2.70905C24.7056 3.3498 25.0832 4.21884 25.0832 5.125V5.27875C25.0855 5.82847 25.2563 6.36555 25.5746 6.82388C25.893 7.28221 26.3449 7.64178 26.8748 7.85833C27.4152 8.08574 28.0147 8.15357 28.5959 8.05309C29.1771 7.95261 29.7134 7.68842 30.1357 7.29458L30.2432 7.19208C30.576 6.87441 30.9712 6.6224 31.4062 6.45046C31.8412 6.27852 32.3075 6.19002 32.7784 6.19002C33.2493 6.19002 33.7156 6.27852 34.1506 6.45046C34.5856 6.6224 34.9808 6.87441 35.3136 7.19208C35.6467 7.5094 35.9111 7.88622 36.0914 8.301C36.2717 8.71577 36.3645 9.16037 36.3645 9.60937C36.3645 10.0584 36.2717 10.503 36.0914 10.9178C35.9111 11.3325 35.6467 11.7093 35.3136 12.0267L35.2061 12.1292C34.793 12.5318 34.516 13.0432 34.4106 13.5973C34.3052 14.1515 34.3763 14.7231 34.6148 15.2383V15.375C34.842 15.8803 35.2191 16.3112 35.6998 16.6147C36.1804 16.9183 36.7437 17.0811 37.3203 17.0833H37.6248C38.5752 17.0833 39.4866 17.4433 40.1586 18.0841C40.8306 18.7248 41.2082 19.5938 41.2082 20.5C41.2082 21.4062 40.8306 22.2752 40.1586 22.9159C39.4866 23.5567 38.5752 23.9167 37.6248 23.9167H37.4636C36.887 23.9189 36.3238 24.0817 35.8431 24.3853C35.3624 24.6888 34.9853 25.1197 34.7582 25.625V25.625Z" stroke="black" stroke-width="2" stroke-linecap="round" stroke-linejoin="round"/>
</svg>
