<svg width="66" height="52" viewBox="0 0 66 52" fill="none" xmlns="http://www.w3.org/2000/svg">
<rect width="66" height="52" rx="6" fill="#32AEE3"/>
<path d="M18.5 24C21.5376 24 24 21.5376 24 18.5C24 15.4624 21.5376 13 18.5 13C15.4624 13 13 15.4624 13 18.5C13 21.5376 15.4624 24 18.5 24Z" stroke="white" stroke-width="2" stroke-miterlimit="10"/>
<path d="M45.0232 30.869C45.0232 35.9075 39.396 39.9921 32.4545 39.9921C25.513 39.9921 19.8858 35.9075 19.8858 30.869C19.8858 25.8304 27.0458 27.8625 33.9873 27.8625C40.9288 27.8625 45.0232 25.8304 45.0232 30.869Z" fill="white"/>
<path d="M45.6363 28.5363C45.6363 34.367 39.7346 39.0936 32.4545 39.0936C25.1744 39.0936 19.2727 34.367 19.2727 28.5363C19.2727 22.7057 26.7072 26.0655 33.9873 26.0655C41.2674 26.0655 45.6363 22.7057 45.6363 28.5363Z" fill="#32AEE3"/>
<path d="M41.5825 19.9999C42.7671 18.9969 43.9432 17.7974 45.1315 16.8769C46.3215 15.9551 47.5112 15.388 48.6874 14.8464C48.9887 14.7077 49.4532 14.4585 49.7273 14.5354" stroke="white" stroke-width="2" stroke-linecap="round" stroke-linejoin="round"/>
<path d="M41.5455 20.147C42.6143 19.626 43.7456 19.5288 44.8052 19.4169C46.5007 19.2378 48.1661 19.2146 49.837 19.2365C50.5989 19.2465 51.2947 19.2606 52.0126 19.462" stroke="white" stroke-width="2" stroke-linecap="round" stroke-linejoin="round"/>
</svg>
